<?xml version="1.0" encoding="UTF-8" standalone="no"?>
<!DOCTYPE svg PUBLIC "-//W3C//DTD SVG 1.1//EN"
 "http://www.w3.org/Graphics/SVG/1.1/DTD/svg11.dtd">
<!-- Generated by graphviz version 2.43.0 (0)
 -->
<!-- Title: sourcetree Pages: 1 -->
<svg width="836pt" height="260pt"
 viewBox="0.00 0.00 835.50 260.00" xmlns="http://www.w3.org/2000/svg" xmlns:xlink="http://www.w3.org/1999/xlink">
<g id="graph0" class="graph" transform="scale(1 1) rotate(0) translate(4 256)">
<title>sourcetree</title>
<polygon fill="white" stroke="transparent" points="-4,4 -4,-256 831.5,-256 831.5,4 -4,4"/>
<!-- mulle&#45;testallocator -->
<g id="node1" class="node">
<title>mulle&#45;testallocator</title>
<polygon fill="yellow" stroke="black" points="444,-252 293,-252 293,-216 444,-216 444,-252"/>
<text text-anchor="middle" x="368.5" y="-230.3" font-family="Times,serif" font-size="14.00">mulle&#45;testallocator</text>
</g>
<!-- mulle&#45;allocator -->
<g id="node4" class="node">
<title>mulle&#45;allocator</title>
<g id="a_node4"><a xlink:href="https://github.com/mulle-c/mulle-allocator" xlink:title="mulle&#45;allocator">
<polygon fill="lightgrey" stroke="black" points="123,-180 0,-180 0,-144 123,-144 123,-180"/>
<text text-anchor="middle" x="61.5" y="-158.3" font-family="Times,serif" font-size="14.00">mulle&#45;allocator</text>
</a>
</g>
</g>
<!-- mulle&#45;testallocator&#45;&gt;mulle&#45;allocator -->
<g id="edge4" class="edge">
<title>mulle&#45;testallocator&#45;&gt;mulle&#45;allocator</title>
<path fill="none" stroke="black" d="M292.98,-216.32C249.07,-206.56 192.43,-193.86 133.01,-180.1"/>
<polygon fill="black" stroke="black" points="133.59,-176.64 123.06,-177.8 132.01,-183.46 133.59,-176.64"/>
</g>
<!-- mulle&#45;atexit -->
<g id="node5" class="node">
<title>mulle&#45;atexit</title>
<g id="a_node5"><a xlink:href="https://github.com/mulle-core/mulle-atexit" xlink:title="mulle&#45;atexit">
<polygon fill="lightgrey" stroke="black" points="243.5,-180 141.5,-180 141.5,-144 243.5,-144 243.5,-180"/>
<text text-anchor="middle" x="192.5" y="-158.3" font-family="Times,serif" font-size="14.00">mulle&#45;atexit</text>
</a>
</g>
</g>
<!-- mulle&#45;testallocator&#45;&gt;mulle&#45;atexit -->
<g id="edge5" class="edge">
<title>mulle&#45;testallocator&#45;&gt;mulle&#45;atexit</title>
<path fill="none" stroke="black" d="M325.45,-215.88C301.17,-206.22 270.66,-194.09 244.99,-183.88"/>
<polygon fill="black" stroke="black" points="246,-180.51 235.41,-180.07 243.41,-187.02 246,-180.51"/>
</g>
<!-- mulle&#45;atinit -->
<g id="node6" class="node">
<title>mulle&#45;atinit</title>
<g id="a_node6"><a xlink:href="https://github.com/mulle-core/mulle-atinit" xlink:title="mulle&#45;atinit">
<polygon fill="lightgrey" stroke="black" points="361,-180 262,-180 262,-144 361,-144 361,-180"/>
<text text-anchor="middle" x="311.5" y="-158.3" font-family="Times,serif" font-size="14.00">mulle&#45;atinit</text>
</a>
</g>
</g>
<!-- mulle&#45;testallocator&#45;&gt;mulle&#45;atinit -->
<g id="edge6" class="edge">
<title>mulle&#45;testallocator&#45;&gt;mulle&#45;atinit</title>
<path fill="none" stroke="black" d="M354.41,-215.7C347.58,-207.3 339.24,-197.07 331.74,-187.86"/>
<polygon fill="black" stroke="black" points="334.46,-185.65 325.43,-180.1 329.03,-190.07 334.46,-185.65"/>
</g>
<!-- mulle&#45;data -->
<g id="node8" class="node">
<title>mulle&#45;data</title>
<g id="a_node8"><a xlink:href="https://github.com/mulle-c/mulle-data" xlink:title="mulle&#45;data">
<polygon fill="lightgrey" stroke="black" points="471.5,-180 379.5,-180 379.5,-144 471.5,-144 471.5,-180"/>
<text text-anchor="middle" x="425.5" y="-158.3" font-family="Times,serif" font-size="14.00">mulle&#45;data</text>
</a>
</g>
</g>
<!-- mulle&#45;testallocator&#45;&gt;mulle&#45;data -->
<g id="edge7" class="edge">
<title>mulle&#45;testallocator&#45;&gt;mulle&#45;data</title>
<path fill="none" stroke="black" d="M382.59,-215.7C389.42,-207.3 397.76,-197.07 405.26,-187.86"/>
<polygon fill="black" stroke="black" points="407.97,-190.07 411.57,-180.1 402.54,-185.65 407.97,-190.07"/>
</g>
<!-- mulle&#45;stacktrace -->
<g id="node11" class="node">
<title>mulle&#45;stacktrace</title>
<g id="a_node11"><a xlink:href="https://github.com/mulle-core/mulle-stacktrace" xlink:title="mulle&#45;stacktrace">
<polygon fill="lightgrey" stroke="black" points="625,-180 490,-180 490,-144 625,-144 625,-180"/>
<text text-anchor="middle" x="557.5" y="-158.3" font-family="Times,serif" font-size="14.00">mulle&#45;stacktrace</text>
</a>
</g>
</g>
<!-- mulle&#45;testallocator&#45;&gt;mulle&#45;stacktrace -->
<g id="edge8" class="edge">
<title>mulle&#45;testallocator&#45;&gt;mulle&#45;stacktrace</title>
<path fill="none" stroke="black" d="M414.73,-215.88C441.03,-206.14 474.14,-193.87 501.86,-183.61"/>
<polygon fill="black" stroke="black" points="503.25,-186.82 511.42,-180.07 500.82,-180.26 503.25,-186.82"/>
</g>
<!-- mulle&#45;thread -->
<g id="node12" class="node">
<title>mulle&#45;thread</title>
<g id="a_node12"><a xlink:href="https://github.com/mulle-concurrent/mulle-thread" xlink:title="mulle&#45;thread">
<polygon fill="lightgrey" stroke="black" points="751.5,-180 643.5,-180 643.5,-144 751.5,-144 751.5,-180"/>
<text text-anchor="middle" x="697.5" y="-158.3" font-family="Times,serif" font-size="14.00">mulle&#45;thread</text>
</a>
</g>
</g>
<!-- mulle&#45;testallocator&#45;&gt;mulle&#45;thread -->
<g id="edge9" class="edge">
<title>mulle&#45;testallocator&#45;&gt;mulle&#45;thread</title>
<path fill="none" stroke="black" d="M444.18,-219.32C495.17,-209.77 564.13,-196.24 633.48,-180.17"/>
<polygon fill="black" stroke="black" points="634.32,-183.56 643.26,-177.88 632.73,-176.75 634.32,-183.56"/>
</g>
<!-- dlfcn&#45;win32 -->
<g id="node2" class="node">
<title>dlfcn&#45;win32</title>
<g id="a_node2"><a xlink:href="https://github.com/mulle-core/dlfcn-win32" xlink:title="dlfcn&#45;win32">
<polygon fill="lightgrey" stroke="black" points="607.5,-36 507.5,-36 507.5,0 607.5,0 607.5,-36"/>
<text text-anchor="middle" x="557.5" y="-14.3" font-family="Times,serif" font-size="14.00">dlfcn&#45;win32</text>
</a>
</g>
</g>
<!-- mintomic -->
<g id="node3" class="node">
<title>mintomic</title>
<g id="a_node3"><a xlink:href="https://github.com/mulle-concurrent/mintomic" xlink:title="mintomic">
<polygon fill="lightgrey" stroke="black" points="723,-108 640,-108 640,-72 723,-72 723,-108"/>
<text text-anchor="middle" x="681.5" y="-86.3" font-family="Times,serif" font-size="14.00">mintomic</text>
</a>
</g>
</g>
<!-- mulle&#45;c11 -->
<g id="node7" class="node">
<title>mulle&#45;c11</title>
<g id="a_node7"><a xlink:href="https://github.com/mulle-c/mulle-c11" xlink:title="mulle&#45;c11">
<polygon fill="lightgrey" stroke="black" points="827.5,-108 741.5,-108 741.5,-72 827.5,-72 827.5,-108"/>
<text text-anchor="middle" x="784.5" y="-86.3" font-family="Times,serif" font-size="14.00">mulle&#45;c11</text>
</a>
</g>
</g>
<!-- xxhash.h -->
<g id="node9" class="node">
<title>xxhash.h</title>
<g id="a_node9"><a xlink:href="https://raw.githubusercontent.com//mulle-c/xxHash/refs/heads/dev/xxhash.h" xlink:title="xxhash.h">
<polygon fill="lightgrey" stroke="black" points="465.5,-108 385.5,-108 385.5,-72 465.5,-72 465.5,-108"/>
<text text-anchor="middle" x="425.5" y="-86.3" font-family="Times,serif" font-size="14.00">xxhash.h</text>
</a>
</g>
</g>
<!-- mulle&#45;data&#45;&gt;xxhash.h -->
<g id="edge1" class="edge">
<title>mulle&#45;data&#45;&gt;xxhash.h</title>
<path fill="none" stroke="black" d="M425.5,-143.7C425.5,-135.98 425.5,-126.71 425.5,-118.11"/>
<polygon fill="black" stroke="black" points="429,-118.1 425.5,-108.1 422,-118.1 429,-118.1"/>
</g>
<!-- mulle&#45;dlfcn -->
<g id="node10" class="node">
<title>mulle&#45;dlfcn</title>
<g id="a_node10"><a xlink:href="https://github.com/mulle-core/mulle-dlfcn" xlink:title="mulle&#45;dlfcn">
<polygon fill="lightgrey" stroke="black" points="605.5,-108 509.5,-108 509.5,-72 605.5,-72 605.5,-108"/>
<text text-anchor="middle" x="557.5" y="-86.3" font-family="Times,serif" font-size="14.00">mulle&#45;dlfcn</text>
</a>
</g>
</g>
<!-- mulle&#45;dlfcn&#45;&gt;dlfcn&#45;win32 -->
<g id="edge2" class="edge">
<title>mulle&#45;dlfcn&#45;&gt;dlfcn&#45;win32</title>
<path fill="none" stroke="black" d="M557.5,-71.7C557.5,-63.98 557.5,-54.71 557.5,-46.11"/>
<polygon fill="black" stroke="black" points="561,-46.1 557.5,-36.1 554,-46.1 561,-46.1"/>
</g>
<!-- mulle&#45;stacktrace&#45;&gt;mulle&#45;dlfcn -->
<g id="edge3" class="edge">
<title>mulle&#45;stacktrace&#45;&gt;mulle&#45;dlfcn</title>
<path fill="none" stroke="black" d="M557.5,-143.7C557.5,-135.98 557.5,-126.71 557.5,-118.11"/>
<polygon fill="black" stroke="black" points="561,-118.1 557.5,-108.1 554,-118.1 561,-118.1"/>
</g>
<!-- mulle&#45;thread&#45;&gt;mintomic -->
<g id="edge10" class="edge">
<title>mulle&#45;thread&#45;&gt;mintomic</title>
<path fill="none" stroke="black" d="M693.54,-143.7C691.78,-135.98 689.66,-126.71 687.7,-118.11"/>
<polygon fill="black" stroke="black" points="691.05,-117.07 685.41,-108.1 684.23,-118.63 691.05,-117.07"/>
</g>
<!-- mulle&#45;thread&#45;&gt;mulle&#45;c11 -->
<g id="edge11" class="edge">
<title>mulle&#45;thread&#45;&gt;mulle&#45;c11</title>
<path fill="none" stroke="black" d="M719.01,-143.7C729.96,-134.88 743.45,-124.03 755.32,-114.47"/>
<polygon fill="black" stroke="black" points="757.64,-117.1 763.24,-108.1 753.26,-111.65 757.64,-117.1"/>
</g>
</g>
</svg>
