<?xml version="1.0" encoding="UTF-8" standalone="no"?>
<!DOCTYPE svg PUBLIC "-//W3C//DTD SVG 1.1//EN"
 "http://www.w3.org/Graphics/SVG/1.1/DTD/svg11.dtd">
<!-- Generated by graphviz version 2.43.0 (0)
 -->
<!-- Title: sourcetree Pages: 1 -->
<svg width="643pt" height="188pt"
 viewBox="0.00 0.00 642.50 188.00" xmlns="http://www.w3.org/2000/svg" xmlns:xlink="http://www.w3.org/1999/xlink">
<g id="graph0" class="graph" transform="scale(1 1) rotate(0) translate(4 184)">
<title>sourcetree</title>
<polygon fill="white" stroke="transparent" points="-4,4 -4,-184 638.5,-184 638.5,4 -4,4"/>
<!-- mulle&#45;testallocator -->
<g id="node1" class="node">
<title>mulle&#45;testallocator</title>
<polygon fill="yellow" stroke="black" points="382,-180 231,-180 231,-144 382,-144 382,-180"/>
<text text-anchor="middle" x="306.5" y="-158.3" font-family="Times,serif" font-size="14.00">mulle&#45;testallocator</text>
</g>
<!-- mulle&#45;allocator -->
<g id="node5" class="node">
<title>mulle&#45;allocator</title>
<g id="a_node5"><a xlink:href="https://github.com/mulle-c/mulle-allocator" xlink:title="mulle&#45;allocator">
<polygon fill="lightgrey" stroke="black" points="123,-108 0,-108 0,-72 123,-72 123,-108"/>
<text text-anchor="middle" x="61.5" y="-86.3" font-family="Times,serif" font-size="14.00">mulle&#45;allocator</text>
</a>
</g>
</g>
<!-- mulle&#45;testallocator&#45;&gt;mulle&#45;allocator -->
<g id="edge4" class="edge">
<title>mulle&#45;testallocator&#45;&gt;mulle&#45;allocator</title>
<path fill="none" stroke="black" d="M246.88,-143.97C212.05,-134.01 167.92,-121.41 131.46,-110.99"/>
<polygon fill="black" stroke="black" points="131.96,-107.49 121.39,-108.11 130.04,-114.22 131.96,-107.49"/>
</g>
<!-- mulle&#45;atinit -->
<g id="node7" class="node">
<title>mulle&#45;atinit</title>
<g id="a_node7"><a xlink:href="https://github.com/mulle-core/mulle-atinit" xlink:title="mulle&#45;atinit">
<polygon fill="lightgrey" stroke="black" points="240,-108 141,-108 141,-72 240,-72 240,-108"/>
<text text-anchor="middle" x="190.5" y="-86.3" font-family="Times,serif" font-size="14.00">mulle&#45;atinit</text>
</a>
</g>
</g>
<!-- mulle&#45;testallocator&#45;&gt;mulle&#45;atinit -->
<g id="edge5" class="edge">
<title>mulle&#45;testallocator&#45;&gt;mulle&#45;atinit</title>
<path fill="none" stroke="black" d="M278.12,-143.88C262.96,-134.72 244.09,-123.34 227.76,-113.48"/>
<polygon fill="black" stroke="black" points="229.36,-110.36 218.99,-108.19 225.74,-116.35 229.36,-110.36"/>
</g>
<!-- mulle&#45;dlfcn -->
<g id="node8" class="node">
<title>mulle&#45;dlfcn</title>
<g id="a_node8"><a xlink:href="https://github.com/mulle-core/mulle-dlfcn" xlink:title="mulle&#45;dlfcn">
<polygon fill="lightgrey" stroke="black" points="354.5,-108 258.5,-108 258.5,-72 354.5,-72 354.5,-108"/>
<text text-anchor="middle" x="306.5" y="-86.3" font-family="Times,serif" font-size="14.00">mulle&#45;dlfcn</text>
</a>
</g>
</g>
<!-- mulle&#45;testallocator&#45;&gt;mulle&#45;dlfcn -->
<g id="edge6" class="edge">
<title>mulle&#45;testallocator&#45;&gt;mulle&#45;dlfcn</title>
<path fill="none" stroke="black" d="M306.5,-143.7C306.5,-135.98 306.5,-126.71 306.5,-118.11"/>
<polygon fill="black" stroke="black" points="310,-118.1 306.5,-108.1 303,-118.1 310,-118.1"/>
</g>
<!-- mulle&#45;stacktrace -->
<g id="node9" class="node">
<title>mulle&#45;stacktrace</title>
<g id="a_node9"><a xlink:href="https://github.com/mulle-core/mulle-stacktrace" xlink:title="mulle&#45;stacktrace">
<polygon fill="lightgrey" stroke="black" points="508,-108 373,-108 373,-72 508,-72 508,-108"/>
<text text-anchor="middle" x="440.5" y="-86.3" font-family="Times,serif" font-size="14.00">mulle&#45;stacktrace</text>
</a>
</g>
</g>
<!-- mulle&#45;testallocator&#45;&gt;mulle&#45;stacktrace -->
<g id="edge7" class="edge">
<title>mulle&#45;testallocator&#45;&gt;mulle&#45;stacktrace</title>
<path fill="none" stroke="black" d="M339.28,-143.88C357.13,-134.55 379.4,-122.92 398.5,-112.94"/>
<polygon fill="black" stroke="black" points="400.35,-115.92 407.59,-108.19 397.11,-109.72 400.35,-115.92"/>
</g>
<!-- mulle&#45;thread -->
<g id="node10" class="node">
<title>mulle&#45;thread</title>
<g id="a_node10"><a xlink:href="https://github.com/mulle-concurrent/mulle-thread" xlink:title="mulle&#45;thread">
<polygon fill="lightgrey" stroke="black" points="634.5,-108 526.5,-108 526.5,-72 634.5,-72 634.5,-108"/>
<text text-anchor="middle" x="580.5" y="-86.3" font-family="Times,serif" font-size="14.00">mulle&#45;thread</text>
</a>
</g>
</g>
<!-- mulle&#45;testallocator&#45;&gt;mulle&#45;thread -->
<g id="edge8" class="edge">
<title>mulle&#45;testallocator&#45;&gt;mulle&#45;thread</title>
<path fill="none" stroke="black" d="M375.47,-144C414.31,-134.35 463.95,-121.89 516.4,-108.27"/>
<polygon fill="black" stroke="black" points="517.42,-111.62 526.22,-105.71 515.66,-104.84 517.42,-111.62"/>
</g>
<!-- dlfcn&#45;win32 -->
<g id="node2" class="node">
<title>dlfcn&#45;win32</title>
<g id="a_node2"><a xlink:href="https://github.com/mulle-core/dlfcn-win32" xlink:title="dlfcn&#45;win32">
<polygon fill="lightgrey" stroke="black" points="356.5,-36 256.5,-36 256.5,0 356.5,0 356.5,-36"/>
<text text-anchor="middle" x="306.5" y="-14.3" font-family="Times,serif" font-size="14.00">dlfcn&#45;win32</text>
</a>
</g>
</g>
<!-- libbacktrace -->
<g id="node3" class="node">
<title>libbacktrace</title>
<g id="a_node3"><a xlink:href="https://github.com/mulle-core/libbacktrace" xlink:title="libbacktrace">
<polygon fill="lightgrey" stroke="black" points="492.5,-36 388.5,-36 388.5,0 492.5,0 492.5,-36"/>
<text text-anchor="middle" x="440.5" y="-14.3" font-family="Times,serif" font-size="14.00">libbacktrace</text>
</a>
</g>
</g>
<!-- mintomic -->
<g id="node4" class="node">
<title>mintomic</title>
<g id="a_node4"><a xlink:href="https://github.com/mulle-concurrent/mintomic" xlink:title="mintomic">
<polygon fill="lightgrey" stroke="black" points="622,-36 539,-36 539,0 622,0 622,-36"/>
<text text-anchor="middle" x="580.5" y="-14.3" font-family="Times,serif" font-size="14.00">mintomic</text>
</a>
</g>
</g>
<!-- mulle&#45;c11 -->
<g id="node6" class="node">
<title>mulle&#45;c11</title>
<g id="a_node6"><a xlink:href="https://github.com/mulle-c/mulle-c11" xlink:title="mulle&#45;c11">
<polygon fill="lightgrey" stroke="black" points="104.5,-36 18.5,-36 18.5,0 104.5,0 104.5,-36"/>
<text text-anchor="middle" x="61.5" y="-14.3" font-family="Times,serif" font-size="14.00">mulle&#45;c11</text>
</a>
</g>
</g>
<!-- mulle&#45;allocator&#45;&gt;mulle&#45;c11 -->
<g id="edge1" class="edge">
<title>mulle&#45;allocator&#45;&gt;mulle&#45;c11</title>
<path fill="none" stroke="black" d="M61.5,-71.7C61.5,-63.98 61.5,-54.71 61.5,-46.11"/>
<polygon fill="black" stroke="black" points="65,-46.1 61.5,-36.1 58,-46.1 65,-46.1"/>
</g>
<!-- mulle&#45;dlfcn&#45;&gt;dlfcn&#45;win32 -->
<g id="edge2" class="edge">
<title>mulle&#45;dlfcn&#45;&gt;dlfcn&#45;win32</title>
<path fill="none" stroke="black" d="M306.5,-71.7C306.5,-63.98 306.5,-54.71 306.5,-46.11"/>
<polygon fill="black" stroke="black" points="310,-46.1 306.5,-36.1 303,-46.1 310,-46.1"/>
</g>
<!-- mulle&#45;stacktrace&#45;&gt;libbacktrace -->
<g id="edge3" class="edge">
<title>mulle&#45;stacktrace&#45;&gt;libbacktrace</title>
<path fill="none" stroke="black" d="M440.5,-71.7C440.5,-63.98 440.5,-54.71 440.5,-46.11"/>
<polygon fill="black" stroke="black" points="444,-46.1 440.5,-36.1 437,-46.1 444,-46.1"/>
</g>
<!-- mulle&#45;thread&#45;&gt;mintomic -->
<g id="edge9" class="edge">
<title>mulle&#45;thread&#45;&gt;mintomic</title>
<path fill="none" stroke="black" d="M580.5,-71.7C580.5,-63.98 580.5,-54.71 580.5,-46.11"/>
<polygon fill="black" stroke="black" points="584,-46.1 580.5,-36.1 577,-46.1 584,-46.1"/>
</g>
</g>
</svg>
