<?xml version="1.0" encoding="UTF-8" standalone="no"?>
<!DOCTYPE svg PUBLIC "-//W3C//DTD SVG 1.1//EN"
 "http://www.w3.org/Graphics/SVG/1.1/DTD/svg11.dtd">
<!-- Generated by graphviz version 2.43.0 (0)
 -->
<!-- Title: sourcetree Pages: 1 -->
<svg width="725pt" height="260pt"
 viewBox="0.00 0.00 724.50 260.00" xmlns="http://www.w3.org/2000/svg" xmlns:xlink="http://www.w3.org/1999/xlink">
<g id="graph0" class="graph" transform="scale(1 1) rotate(0) translate(4 256)">
<title>sourcetree</title>
<polygon fill="white" stroke="transparent" points="-4,4 -4,-256 720.5,-256 720.5,4 -4,4"/>
<!-- mulle&#45;testallocator -->
<g id="node1" class="node">
<title>mulle&#45;testallocator</title>
<polygon fill="yellow" stroke="black" points="387,-252 236,-252 236,-216 387,-216 387,-252"/>
<text text-anchor="middle" x="311.5" y="-230.3" font-family="Times,serif" font-size="14.00">mulle&#45;testallocator</text>
</g>
<!-- mulle&#45;allocator -->
<g id="node4" class="node">
<title>mulle&#45;allocator</title>
<g id="a_node4"><a xlink:href="https://github.com/mulle-c/mulle-allocator" xlink:title="mulle&#45;allocator">
<polygon fill="lightgrey" stroke="black" points="123,-180 0,-180 0,-144 123,-144 123,-180"/>
<text text-anchor="middle" x="61.5" y="-158.3" font-family="Times,serif" font-size="14.00">mulle&#45;allocator</text>
</a>
</g>
</g>
<!-- mulle&#45;testallocator&#45;&gt;mulle&#45;allocator -->
<g id="edge3" class="edge">
<title>mulle&#45;testallocator&#45;&gt;mulle&#45;allocator</title>
<path fill="none" stroke="black" d="M250.66,-215.97C214.97,-205.97 169.71,-193.3 132.41,-182.85"/>
<polygon fill="black" stroke="black" points="133.18,-179.44 122.61,-180.11 131.3,-186.18 133.18,-179.44"/>
</g>
<!-- mulle&#45;atexit -->
<g id="node5" class="node">
<title>mulle&#45;atexit</title>
<g id="a_node5"><a xlink:href="https://github.com/mulle-core/mulle-atexit" xlink:title="mulle&#45;atexit">
<polygon fill="lightgrey" stroke="black" points="243.5,-180 141.5,-180 141.5,-144 243.5,-144 243.5,-180"/>
<text text-anchor="middle" x="192.5" y="-158.3" font-family="Times,serif" font-size="14.00">mulle&#45;atexit</text>
</a>
</g>
</g>
<!-- mulle&#45;testallocator&#45;&gt;mulle&#45;atexit -->
<g id="edge4" class="edge">
<title>mulle&#45;testallocator&#45;&gt;mulle&#45;atexit</title>
<path fill="none" stroke="black" d="M282.39,-215.88C266.83,-206.72 247.48,-195.34 230.72,-185.48"/>
<polygon fill="black" stroke="black" points="232.12,-182.24 221.72,-180.19 228.57,-188.28 232.12,-182.24"/>
</g>
<!-- mulle&#45;atinit -->
<g id="node6" class="node">
<title>mulle&#45;atinit</title>
<g id="a_node6"><a xlink:href="https://github.com/mulle-core/mulle-atinit" xlink:title="mulle&#45;atinit">
<polygon fill="lightgrey" stroke="black" points="361,-180 262,-180 262,-144 361,-144 361,-180"/>
<text text-anchor="middle" x="311.5" y="-158.3" font-family="Times,serif" font-size="14.00">mulle&#45;atinit</text>
</a>
</g>
</g>
<!-- mulle&#45;testallocator&#45;&gt;mulle&#45;atinit -->
<g id="edge5" class="edge">
<title>mulle&#45;testallocator&#45;&gt;mulle&#45;atinit</title>
<path fill="none" stroke="black" d="M311.5,-215.7C311.5,-207.98 311.5,-198.71 311.5,-190.11"/>
<polygon fill="black" stroke="black" points="315,-190.1 311.5,-180.1 308,-190.1 315,-190.1"/>
</g>
<!-- mulle&#45;stacktrace -->
<g id="node9" class="node">
<title>mulle&#45;stacktrace</title>
<g id="a_node9"><a xlink:href="https://github.com/mulle-core/mulle-stacktrace" xlink:title="mulle&#45;stacktrace">
<polygon fill="lightgrey" stroke="black" points="514,-180 379,-180 379,-144 514,-144 514,-180"/>
<text text-anchor="middle" x="446.5" y="-158.3" font-family="Times,serif" font-size="14.00">mulle&#45;stacktrace</text>
</a>
</g>
</g>
<!-- mulle&#45;testallocator&#45;&gt;mulle&#45;stacktrace -->
<g id="edge6" class="edge">
<title>mulle&#45;testallocator&#45;&gt;mulle&#45;stacktrace</title>
<path fill="none" stroke="black" d="M344.52,-215.88C362.58,-206.51 385.15,-194.81 404.45,-184.8"/>
<polygon fill="black" stroke="black" points="406.08,-187.9 413.35,-180.19 402.86,-181.69 406.08,-187.9"/>
</g>
<!-- mulle&#45;thread -->
<g id="node10" class="node">
<title>mulle&#45;thread</title>
<g id="a_node10"><a xlink:href="https://github.com/mulle-concurrent/mulle-thread" xlink:title="mulle&#45;thread">
<polygon fill="lightgrey" stroke="black" points="640.5,-180 532.5,-180 532.5,-144 640.5,-144 640.5,-180"/>
<text text-anchor="middle" x="586.5" y="-158.3" font-family="Times,serif" font-size="14.00">mulle&#45;thread</text>
</a>
</g>
</g>
<!-- mulle&#45;testallocator&#45;&gt;mulle&#45;thread -->
<g id="edge7" class="edge">
<title>mulle&#45;testallocator&#45;&gt;mulle&#45;thread</title>
<path fill="none" stroke="black" d="M381.29,-215.9C420.25,-206.27 469.91,-193.87 522.39,-180.27"/>
<polygon fill="black" stroke="black" points="523.42,-183.62 532.22,-177.72 521.66,-176.84 523.42,-183.62"/>
</g>
<!-- dlfcn&#45;win32 -->
<g id="node2" class="node">
<title>dlfcn&#45;win32</title>
<g id="a_node2"><a xlink:href="https://github.com/mulle-core/dlfcn-win32" xlink:title="dlfcn&#45;win32">
<polygon fill="lightgrey" stroke="black" points="496.5,-36 396.5,-36 396.5,0 496.5,0 496.5,-36"/>
<text text-anchor="middle" x="446.5" y="-14.3" font-family="Times,serif" font-size="14.00">dlfcn&#45;win32</text>
</a>
</g>
</g>
<!-- mintomic -->
<g id="node3" class="node">
<title>mintomic</title>
<g id="a_node3"><a xlink:href="https://github.com/mulle-concurrent/mintomic" xlink:title="mintomic">
<polygon fill="lightgrey" stroke="black" points="612,-108 529,-108 529,-72 612,-72 612,-108"/>
<text text-anchor="middle" x="570.5" y="-86.3" font-family="Times,serif" font-size="14.00">mintomic</text>
</a>
</g>
</g>
<!-- mulle&#45;c11 -->
<g id="node7" class="node">
<title>mulle&#45;c11</title>
<g id="a_node7"><a xlink:href="https://github.com/mulle-c/mulle-c11" xlink:title="mulle&#45;c11">
<polygon fill="lightgrey" stroke="black" points="716.5,-108 630.5,-108 630.5,-72 716.5,-72 716.5,-108"/>
<text text-anchor="middle" x="673.5" y="-86.3" font-family="Times,serif" font-size="14.00">mulle&#45;c11</text>
</a>
</g>
</g>
<!-- mulle&#45;dlfcn -->
<g id="node8" class="node">
<title>mulle&#45;dlfcn</title>
<g id="a_node8"><a xlink:href="https://github.com/mulle-core/mulle-dlfcn" xlink:title="mulle&#45;dlfcn">
<polygon fill="lightgrey" stroke="black" points="494.5,-108 398.5,-108 398.5,-72 494.5,-72 494.5,-108"/>
<text text-anchor="middle" x="446.5" y="-86.3" font-family="Times,serif" font-size="14.00">mulle&#45;dlfcn</text>
</a>
</g>
</g>
<!-- mulle&#45;dlfcn&#45;&gt;dlfcn&#45;win32 -->
<g id="edge1" class="edge">
<title>mulle&#45;dlfcn&#45;&gt;dlfcn&#45;win32</title>
<path fill="none" stroke="black" d="M446.5,-71.7C446.5,-63.98 446.5,-54.71 446.5,-46.11"/>
<polygon fill="black" stroke="black" points="450,-46.1 446.5,-36.1 443,-46.1 450,-46.1"/>
</g>
<!-- mulle&#45;stacktrace&#45;&gt;mulle&#45;dlfcn -->
<g id="edge2" class="edge">
<title>mulle&#45;stacktrace&#45;&gt;mulle&#45;dlfcn</title>
<path fill="none" stroke="black" d="M446.5,-143.7C446.5,-135.98 446.5,-126.71 446.5,-118.11"/>
<polygon fill="black" stroke="black" points="450,-118.1 446.5,-108.1 443,-118.1 450,-118.1"/>
</g>
<!-- mulle&#45;thread&#45;&gt;mintomic -->
<g id="edge8" class="edge">
<title>mulle&#45;thread&#45;&gt;mintomic</title>
<path fill="none" stroke="black" d="M582.54,-143.7C580.78,-135.98 578.66,-126.71 576.7,-118.11"/>
<polygon fill="black" stroke="black" points="580.05,-117.07 574.41,-108.1 573.23,-118.63 580.05,-117.07"/>
</g>
<!-- mulle&#45;thread&#45;&gt;mulle&#45;c11 -->
<g id="edge9" class="edge">
<title>mulle&#45;thread&#45;&gt;mulle&#45;c11</title>
<path fill="none" stroke="black" d="M608.01,-143.7C618.96,-134.88 632.45,-124.03 644.32,-114.47"/>
<polygon fill="black" stroke="black" points="646.64,-117.1 652.24,-108.1 642.26,-111.65 646.64,-117.1"/>
</g>
</g>
</svg>
